<?xml version="1.0" encoding="iso-8859-1"?>
<!-- Generator: Adobe Illustrator 19.0.0, SVG Export Plug-In . SVG Version: 6.00 Build 0)  -->
<svg version="1.1" id="Layer_1" xmlns="http://www.w3.org/2000/svg" xmlns:xlink="http://www.w3.org/1999/xlink" x="0px" y="0px"
	 viewBox="0 0 500 500" style="enable-background:new 0 0 500 500;" xml:space="preserve">
<g>
	<g>
		<path d="M453.584,69.784h-16.576v-9.648c0-4.352-3.528-7.876-7.876-7.876c-4.344,0-7.872,3.52-7.872,7.876v9.648h-43.308v-9.648
			c0-4.352-3.528-7.876-7.876-7.876c-4.348,0-7.876,3.52-7.876,7.876v9.648h-43.3v-9.648c0-4.352-3.528-7.876-7.876-7.876
			c-4.348,0-7.876,3.52-7.876,7.876v9.648h-47.24v-9.648c0-4.352-3.528-7.876-7.876-7.876c-4.348,0-7.872,3.52-7.872,7.876v9.648
			h-39.372v-9.648c0-4.352-3.524-7.876-7.872-7.876c-4.348,0-7.876,3.52-7.876,7.876v9.648h-43.308v-9.648
			c0-4.352-3.524-7.876-7.876-7.876c-4.348,0-7.872,3.52-7.872,7.876v9.648H82.676v-9.648c0-4.352-3.524-7.876-7.876-7.876
			c-4.348,0-7.872,3.52-7.872,7.876v9.648H49.96C22.44,69.784,0,94.336,0,121.868v277.468c0,27.528,22.44,48.404,49.964,48.404
			h403.62c27.52,0,46.416-20.876,46.416-48.404V121.868C500,94.336,481.1,69.784,453.584,69.784z M484.252,399.332
			c0,18.848-11.832,32.66-30.668,32.66H49.964c-18.84,0-34.216-13.812-34.216-32.656V124.904h468.504V399.332z"/>
	</g>
</g>
<g>
	<g>
		<path d="M468.504,169.988c0-4.348,0.124-9.652-4.224-9.652H39.34c-4.348,0-11.78,5.304-11.78,9.652v46.444
			c0,0.264-0.08,0.52-0.08,0.8c0,0.28,0.08,0.536,0.08,0.8v45.644c0,0.264-0.08,0.524-0.08,0.8s0.08,0.532,0.08,0.8v45.644
			c0,0.264-0.08,0.52-0.08,0.8c0,0.28,0.08,0.536,0.08,0.8v45.644c0,0.264-0.08,0.524-0.08,0.8s0.08,0.532,0.08,0.8v46.444
			c0,4.348,7.432,6.096,11.78,6.096h424.94c4.348,0,4.224-1.748,4.224-6.096V169.988z M326.772,176.088h55.116v31.496h-55.116
			V176.088z M185.04,176.088h55.12v31.496h-55.12V176.088z M185.04,223.328h55.12v31.496h-55.12V223.328z M185.04,270.576h55.12
			v31.496h-55.12V270.576z M114.172,176.088h55.116v31.496h-55.116V176.088z M114.172,270.576h55.116v31.496h-55.116V270.576z
			 M114.172,317.816h55.116v31.496h-55.116V317.816z M43.304,176.084h55.12v31.496h-55.12V176.084z M43.304,223.328h55.12v31.496
			h-55.12V223.328z M43.304,270.576h55.12v31.496h-55.12V270.576z M98.428,396.56h-55.12v-31.496h55.12V396.56z M98.428,349.312
			h-55.12v-31.496h55.12V349.312z M169.292,396.56h-55.12v-31.496h55.12V396.56z M169.292,254.824h-55.12v-31.496h55.12V254.824z
			 M240.16,396.56h-55.12v-31.496h55.12V396.56z M240.16,349.312h-55.12v-31.496h55.12V349.312z M311.024,396.56h-55.116v-31.496
			h55.116V396.56z M311.024,349.312h-55.116v-31.496h55.116V349.312z M311.024,302.072h-55.116v-31.496h55.116V302.072z
			 M311.024,254.824h-55.116v-31.496h55.116V254.824z M311.024,207.584h-55.116v-31.496h55.116V207.584z M381.888,396.56h-55.116
			v-31.496h55.116V396.56z M381.888,349.312h-55.116v-31.496h55.116V349.312z M381.888,302.072h-55.116v-31.496h55.116V302.072z
			 M326.772,254.824v-31.496h55.116v31.496H326.772z M452.756,396.556h-55.12V365.06h55.12V396.556z M452.756,349.312h-55.12
			v-31.496h55.12V349.312z M452.756,302.072h-55.12v-31.496h55.12V302.072z M452.756,254.824h-55.12v-31.496h55.12V254.824z
			 M452.756,207.584h-55.12v-31.496h55.12V207.584z"/>
	</g>
</g>
<g>
</g>
<g>
</g>
<g>
</g>
<g>
</g>
<g>
</g>
<g>
</g>
<g>
</g>
<g>
</g>
<g>
</g>
<g>
</g>
<g>
</g>
<g>
</g>
<g>
</g>
<g>
</g>
<g>
</g>
</svg>
